<?xml version="1.0" encoding="UTF-8"?> <svg xmlns="http://www.w3.org/2000/svg" width="381" height="330" viewBox="0 0 381 330" fill="none"><g style="mix-blend-mode:color-dodge"><path d="M34.2582 0L380.447 155.632L375.291 227.117L29.5625 66.8962L34.2582 0Z" fill="url(#paint0_linear_136_281)" fill-opacity="0.3"></path><path d="M34.2694 16.2432L380.458 171.875L375.302 227.209L29.5737 66.9888L34.2694 16.2432Z" fill="url(#paint1_linear_136_281)" fill-opacity="0.2"></path><path d="M124.602 173.944L159.715 186.512L159.844 127.547L124.602 111.021V173.944Z" fill="url(#paint2_linear_136_281)" fill-opacity="0.8"></path><path d="M159.844 189.844L104.97 222.438V101.768L159.844 127.553V189.844Z" fill="url(#paint3_linear_136_281)" fill-opacity="0.8"></path><g style="mix-blend-mode:overlay" filter="url(#filter0_f_136_281)"><ellipse cx="174.183" cy="233.707" rx="150.183" ry="72.2937" fill="url(#paint4_radial_136_281)" fill-opacity="0.4"></ellipse></g><path d="M124.604 173.949L104.97 222.438V101.768L124.604 111.017V173.949Z" fill="url(#paint5_linear_136_281)"></path><path d="M152.08 73.7906L159.383 34.8711L230.212 35.0317L181.526 76.4317L152.08 73.7906Z" fill="url(#paint6_linear_136_281)" fill-opacity="0.8"></path><g opacity="0.7"><path d="M181.525 76.4308L152.078 73.791L124.602 111.016V173.946L155.697 173.343L181.273 137.326L181.525 76.4308Z" fill="url(#paint7_linear_136_281)"></path><path d="M181.525 76.4308L152.078 73.791L124.602 111.016V173.946L155.697 173.343L181.273 137.326L181.525 76.4308Z" fill="url(#paint8_radial_136_281)"></path><path d="M181.525 76.4308L152.078 73.791L124.602 111.016V173.946L155.697 173.343L181.273 137.326L181.525 76.4308Z" fill="url(#paint9_linear_136_281)"></path></g><path d="M152.079 73.791L187.191 86.3592L159.848 127.553L124.607 111.018L152.079 73.791Z" fill="url(#paint10_linear_136_281)" fill-opacity="0.8"></path><path d="M181.204 137.354L216.589 153.509L189.115 188.084L155.697 173.339L181.204 137.354Z" fill="url(#paint11_linear_136_281)" fill-opacity="0.8"></path><path d="M152.079 73.791L187.191 86.3592L216.639 89.0006L181.525 76.431L152.079 73.791Z" fill="url(#paint12_linear_136_281)" fill-opacity="0.8"></path><path d="M124.594 173.941L159.85 189.856L189.155 188.106L155.701 173.344L124.594 173.941Z" fill="url(#paint13_linear_136_281)"></path><path d="M187.282 86.5344L159.384 34.8711L104.97 101.767L159.85 127.547L187.282 86.5344Z" fill="url(#paint14_linear_136_281)" fill-opacity="0.9"></path><path d="M216.572 153.522L230.072 159.808V34.7793L216.607 89.012L216.572 153.522Z" fill="url(#paint15_linear_136_281)" fill-opacity="0.9"></path><path d="M159.844 189.849L104.97 222.437L176.049 232.715L189.1 188.083L159.844 189.849Z" fill="url(#paint16_linear_136_281)" fill-opacity="0.9"></path><path d="M216.582 153.51L230.065 159.807L176.048 232.714L189.099 188.082L216.582 153.51Z" fill="url(#paint17_linear_136_281)"></path><path d="M187.281 86.5344L159.384 34.8711H230.095L216.606 89.012L187.281 86.5344Z" fill="url(#paint18_linear_136_281)"></path><path d="M187.281 86.5344L159.384 34.8711H230.095L216.606 89.012L187.281 86.5344Z" fill="url(#paint19_linear_136_281)" fill-opacity="0.6"></path><path d="M105.062 222.53L124.627 173.895L159.845 189.85L105.062 222.53Z" fill="url(#paint20_linear_136_281)"></path><path d="M34.8106 133.643L381 289.275L375.291 227.197L29.5625 66.9766L34.8106 133.643Z" fill="url(#paint21_linear_136_281)" fill-opacity="0.4"></path><path d="M34.8106 119.007L381 274.639L375.291 227.197L29.5625 66.9766L34.8106 119.007Z" fill="url(#paint22_linear_136_281)" fill-opacity="0.3"></path><g opacity="0.7"><path d="M216.638 88.9996L187.258 86.3604L159.844 127.544V189.85L189.159 188.083L216.583 153.49L216.638 88.9996Z" fill="url(#paint23_linear_136_281)"></path><path d="M216.638 88.9996L187.258 86.3604L159.844 127.544V189.85L189.159 188.083L216.583 153.49L216.638 88.9996Z" fill="url(#paint24_radial_136_281)"></path><path d="M216.638 88.9996L187.258 86.3604L159.844 127.544V189.85L189.159 188.083L216.583 153.49L216.638 88.9996Z" fill="url(#paint25_linear_136_281)"></path></g></g><defs><filter id="filter0_f_136_281" x="0" y="137.413" width="348.367" height="192.587" filterUnits="userSpaceOnUse" color-interpolation-filters="sRGB"><feFlood flood-opacity="0" result="BackgroundImageFix"></feFlood><feBlend mode="normal" in="SourceGraphic" in2="BackgroundImageFix" result="shape"></feBlend><feGaussianBlur stdDeviation="12" result="effect1_foregroundBlur_136_281"></feGaussianBlur></filter><linearGradient id="paint0_linear_136_281" x1="80.0593" y1="45.7825" x2="341.094" y2="199.24" gradientUnits="userSpaceOnUse"><stop stop-color="#9492ED" stop-opacity="0"></stop><stop offset="0.546875" stop-color="#7674EC"></stop><stop offset="1" stop-color="#817FDF" stop-opacity="0"></stop></linearGradient><linearGradient id="paint1_linear_136_281" x1="80.0706" y1="45.8751" x2="341.105" y2="199.333" gradientUnits="userSpaceOnUse"><stop stop-color="#232183" stop-opacity="0"></stop><stop offset="0.546875" stop-color="#232183"></stop><stop offset="1" stop-color="#232183" stop-opacity="0"></stop></linearGradient><linearGradient id="paint2_linear_136_281" x1="124.602" y1="124.787" x2="160.735" y2="127.808" gradientUnits="userSpaceOnUse"><stop stop-color="#548DD1"></stop><stop offset="0.59375" stop-color="#E39DE5"></stop><stop offset="1" stop-color="white"></stop></linearGradient><linearGradient id="paint3_linear_136_281" x1="98.7499" y1="152.556" x2="178.165" y2="170.247" gradientUnits="userSpaceOnUse"><stop offset="0.0340296" stop-color="#2B79ED" stop-opacity="0.8"></stop><stop offset="0.791667" stop-color="#FCA6EF" stop-opacity="0.8"></stop><stop offset="1" stop-color="white"></stop></linearGradient><radialGradient id="paint4_radial_136_281" cx="0" cy="0" r="1" gradientUnits="userSpaceOnUse" gradientTransform="translate(174.183 233.707) rotate(90) scale(72.2937 150.183)"><stop offset="0.0729167" stop-color="white"></stop><stop offset="0.34375" stop-color="#A873FF" stop-opacity="0.8"></stop><stop offset="1" stop-color="#0E7DFF" stop-opacity="0"></stop></radialGradient><linearGradient id="paint5_linear_136_281" x1="124.604" y1="107.774" x2="115.523" y2="202.202" gradientUnits="userSpaceOnUse"><stop stop-color="#2295D6"></stop><stop offset="1" stop-color="#2249D6" stop-opacity="0.3"></stop></linearGradient><linearGradient id="paint6_linear_136_281" x1="154.487" y1="44.3504" x2="181.418" y2="81.7494" gradientUnits="userSpaceOnUse"><stop stop-color="#4B86FA" stop-opacity="0.8"></stop><stop offset="0.534769" stop-color="#FCA6EF" stop-opacity="0.8"></stop><stop offset="0.716558" stop-color="white"></stop></linearGradient><linearGradient id="paint7_linear_136_281" x1="183.367" y1="89.0825" x2="85.4594" y2="156.282" gradientUnits="userSpaceOnUse"><stop stop-color="#324BCC"></stop><stop offset="1" stop-color="white" stop-opacity="0.8"></stop></linearGradient><radialGradient id="paint8_radial_136_281" cx="0" cy="0" r="1" gradientUnits="userSpaceOnUse" gradientTransform="translate(153.984 199.797) rotate(-90) scale(77.2772 44.61)"><stop stop-color="#00F0FF"></stop><stop offset="1" stop-color="#00F0FF" stop-opacity="0"></stop></radialGradient><linearGradient id="paint9_linear_136_281" x1="124.602" y1="162.638" x2="153.87" y2="128.038" gradientUnits="userSpaceOnUse"><stop stop-color="white"></stop><stop offset="1" stop-color="white" stop-opacity="0"></stop></linearGradient><linearGradient id="paint10_linear_136_281" x1="141.478" y1="87.0527" x2="171.011" y2="106.227" gradientUnits="userSpaceOnUse"><stop stop-color="#4078CB"></stop><stop offset="0.59375" stop-color="#E39DE5"></stop><stop offset="1" stop-color="white"></stop></linearGradient><linearGradient id="paint11_linear_136_281" x1="214.35" y1="155.999" x2="154.04" y2="176.309" gradientUnits="userSpaceOnUse"><stop stop-color="#4078CB"></stop><stop offset="1" stop-color="#E39DE5"></stop></linearGradient><linearGradient id="paint12_linear_136_281" x1="175.422" y1="75.7755" x2="174.743" y2="86.266" gradientUnits="userSpaceOnUse"><stop stop-color="#4078CB"></stop><stop offset="0.59375" stop-color="#E39DE5"></stop><stop offset="1" stop-color="white"></stop></linearGradient><linearGradient id="paint13_linear_136_281" x1="147.938" y1="174.881" x2="147.26" y2="185.372" gradientUnits="userSpaceOnUse"><stop stop-color="#4078CB"></stop><stop offset="0.59375" stop-color="#E39DE5"></stop><stop offset="1" stop-color="white"></stop></linearGradient><linearGradient id="paint14_linear_136_281" x1="123.909" y1="75.9862" x2="163.95" y2="117.283" gradientUnits="userSpaceOnUse"><stop offset="0.0729167" stop-color="#4B86FA" stop-opacity="0.8"></stop><stop offset="0.791667" stop-color="#FCA6EF" stop-opacity="0.8"></stop><stop offset="1" stop-color="white"></stop></linearGradient><linearGradient id="paint15_linear_136_281" x1="232.765" y1="34.7793" x2="263.901" y2="48.7043" gradientUnits="userSpaceOnUse"><stop offset="0.00889157" stop-color="#1D2A9B" stop-opacity="0.8"></stop><stop offset="0.645598" stop-color="#FCA6EF" stop-opacity="0.8"></stop><stop offset="1" stop-color="white"></stop></linearGradient><linearGradient id="paint16_linear_136_281" x1="104.97" y1="216.595" x2="195.361" y2="202.845" gradientUnits="userSpaceOnUse"><stop offset="0.0340296" stop-color="#4B5CFA" stop-opacity="0.8"></stop><stop offset="0.791667" stop-color="#FCA6EF" stop-opacity="0.8"></stop><stop offset="1" stop-color="white"></stop></linearGradient><linearGradient id="paint17_linear_136_281" x1="219.506" y1="180.959" x2="200.12" y2="170.621" gradientUnits="userSpaceOnUse"><stop offset="0.0340296" stop-color="#4B5CFA" stop-opacity="0.8"></stop><stop offset="0.539474" stop-color="#FCA6EF" stop-opacity="0.8"></stop><stop offset="1" stop-color="white"></stop></linearGradient><linearGradient id="paint18_linear_136_281" x1="227.992" y1="53.1174" x2="198.701" y2="95.2688" gradientUnits="userSpaceOnUse"><stop stop-color="#0A3892"></stop><stop offset="0.536458" stop-color="#29B2ED" stop-opacity="0.8"></stop><stop offset="0.967948" stop-color="white"></stop></linearGradient><linearGradient id="paint19_linear_136_281" x1="215.824" y1="91.7649" x2="192.739" y2="50.5886" gradientUnits="userSpaceOnUse"><stop stop-color="#FF439D"></stop><stop offset="1" stop-color="#FF43D6" stop-opacity="0"></stop></linearGradient><linearGradient id="paint20_linear_136_281" x1="120.806" y1="171.417" x2="159.806" y2="198.334" gradientUnits="userSpaceOnUse"><stop stop-color="#5BE2FF"></stop><stop offset="1" stop-color="#FF93E1" stop-opacity="0.6"></stop></linearGradient><linearGradient id="paint21_linear_136_281" x1="80.0594" y1="45.8629" x2="341.094" y2="199.32" gradientUnits="userSpaceOnUse"><stop stop-color="#232183" stop-opacity="0"></stop><stop offset="0.546875" stop-color="#232183"></stop><stop offset="1" stop-color="#232183" stop-opacity="0"></stop></linearGradient><linearGradient id="paint22_linear_136_281" x1="80.0594" y1="45.8629" x2="341.094" y2="199.32" gradientUnits="userSpaceOnUse"><stop stop-color="#232183" stop-opacity="0"></stop><stop offset="0.546875" stop-color="#8A88EC"></stop><stop offset="1" stop-color="#232183" stop-opacity="0"></stop></linearGradient><linearGradient id="paint23_linear_136_281" x1="218.475" y1="101.648" x2="120.662" y2="168.645" gradientUnits="userSpaceOnUse"><stop stop-color="#324BCC"></stop><stop offset="1" stop-color="white" stop-opacity="0.8"></stop></linearGradient><radialGradient id="paint24_radial_136_281" cx="0" cy="0" r="1" gradientUnits="userSpaceOnUse" gradientTransform="translate(189.159 212.338) rotate(-90) scale(77.2601 44.5083)"><stop stop-color="#3FD8D8"></stop><stop offset="1" stop-color="#81EFEC" stop-opacity="0"></stop></radialGradient><linearGradient id="paint25_linear_136_281" x1="169.159" y1="177.269" x2="193.372" y2="146.046" gradientUnits="userSpaceOnUse"><stop stop-color="white"></stop><stop offset="1" stop-color="white" stop-opacity="0"></stop></linearGradient></defs></svg> 